# xmcd CD database file
#
# Track frame offsets:
#	150
#	27275
#	39388
#	58996
#	79667
#	98175
#	115048
#	146846
#	161546
#
# Disc length: 2546 seconds
#
# Revision: 3
# Processed by: cddbd v1.5.1PL0 Copyright (c) Steve Scherf et al.
# Submitted via: CDex 1.51
#
DISCID=7209f009
DTITLE=ウィンダム・ヒル - Piano Sampler
DYEAR=1985
DGENRE=New Age
TTITLE0=Michael Harrison - In Flight
TTITLE1=Peggy Stern - Amy's Song
TTITLE2=Philip Aaberg - Lou Ann
TTITLE3=Richard Dworsky - A Morning With The Roses
TTITLE4=Tim Story - In This Small Spot
TTITLE5=Paul Dondero - Out To Play
TTITLE6=Allaudin Mathieu - Listening To Evening
TTITLE7=Cyrille Verdeaux - Messenger Of The Son
TTITLE8=Rick Peller - Consolation
EXTD=YEAR: 1985
EXTT0=
EXTT1=
EXTT2=
EXTT3=
EXTT4=
EXTT5=
EXTT6=
EXTT7=
EXTT8=
PLAYORDER=
